<svg aria-hidden="true" style="position: absolute; width: 0; height: 0; overflow: hidden;" version="1.1" xmlns="http://www.w3.org/2000/svg" xmlns:xlink="http://www.w3.org/1999/xlink">
<defs>
<symbol id="icon-conversation" viewBox="0 0 20 20">
<path d="M17 11v3l-3-3h-6c-1.105 0-2-0.895-2-2v0-7c0-1.1 0.9-2 2-2h10c1.105 0 2 0.895 2 2v0 7c0 1.105-0.895 2-2 2v0h-1zM14 13v2c0 1.105-0.895 2-2 2v0h-6l-3 3v-3h-1c-1.105 0-2-0.895-2-2v0-7c0-1.1 0.9-2 2-2h2v3c0 2.209 1.791 4 4 4v0h6z"></path>
</symbol>
<symbol id="icon-thumbs-up" viewBox="0 0 20 20">
<path d="M11 0h1v3l3 7v8c0 1.105-0.895 2-2 2v0h-8c-1.1 0-2.31-0.84-2.7-1.88l-2.3-6.12v-2c0-1.105 0.895-2 2-2v0h7v-6c0-1.105 0.895-2 2-2v0zM17 10h3v10h-3v-10z"></path>
</symbol>
<symbol id="icon-users" viewBox="0 0 36 32">
<path d="M24 24.082v-1.649c2.203-1.241 4-4.337 4-7.432 0-4.971 0-9-6-9s-6 4.029-6 9c0 3.096 1.797 6.191 4 7.432v1.649c-6.784 0.555-12 3.888-12 7.918h28c0-4.030-5.216-7.364-12-7.918z"></path>
<path d="M10.225 24.854c1.728-1.13 3.877-1.989 6.243-2.513-0.47-0.556-0.897-1.176-1.265-1.844-0.95-1.726-1.453-3.627-1.453-5.497 0-2.689 0-5.228 0.956-7.305 0.928-2.016 2.598-3.265 4.976-3.734-0.529-2.39-1.936-3.961-5.682-3.961-6 0-6 4.029-6 9 0 3.096 1.797 6.191 4 7.432v1.649c-6.784 0.555-12 3.888-12 7.918h8.719c0.454-0.403 0.956-0.787 1.506-1.146z"></path>
</symbol>
</defs>
</svg>
