<svg aria-hidden="true" style="position: absolute; width: 0; height: 0; overflow: hidden;" version="1.1" xmlns="http://www.w3.org/2000/svg" xmlns:xlink="http://www.w3.org/1999/xlink">
<defs>
<symbol id="icon-buoy" viewBox="0 0 20 20">
<path d="M17.16 6.42c-0.791-1.555-2.025-2.789-3.535-3.559l-0.045-0.021-1.34 2.69c0.968 0.494 1.736 1.262 2.217 2.202l0.013 0.028 2.69-1.34zM17.16 13.58l-2.69-1.34c-0.494 0.968-1.262 1.736-2.202 2.217l-0.028 0.013 1.34 2.69c1.555-0.791 2.789-2.025 3.559-3.535l0.021-0.045zM6.42 2.84c-1.555 0.791-2.789 2.025-3.559 3.535l-0.021 0.045 2.69 1.34c0.494-0.968 1.262-1.736 2.202-2.217l0.028-0.013-1.34-2.69zM2.84 13.58c0.791 1.555 2.025 2.789 3.535 3.559l0.045 0.021 1.34-2.69c-0.968-0.494-1.736-1.262-2.217-2.202l-0.013-0.028-2.69 1.34zM10 20c-5.523 0-10-4.477-10-10s4.477-10 10-10v0c5.523 0 10 4.477 10 10s-4.477 10-10 10v0zM10 13c1.657 0 3-1.343 3-3s-1.343-3-3-3v0c-1.657 0-3 1.343-3 3s1.343 3 3 3v0z"></path>
</symbol>
<symbol id="icon-film" viewBox="0 0 20 20">
<path d="M0 4c0-1.1 0.9-2 2-2h16c1.105 0 2 0.895 2 2v0 12c0 1.105-0.895 2-2 2v0h-16c-1.105 0-2-0.895-2-2v0-12zM6 4v12h8v-12h-8zM2 5v2h2v-2h-2zM2 9v2h2v-2h-2zM2 13v2h2v-2h-2zM16 5v2h2v-2h-2zM16 9v2h2v-2h-2zM16 13v2h2v-2h-2zM8 7l5 3-5 3v-6z"></path>
</symbol>
<symbol id="icon-library" viewBox="0 0 20 20">
<path d="M0 6l10-6 10 6v2h-20v-2zM0 18h20v2h-20v-2zM2 16h16v2h-16v-2zM2 8h4v8h-4v-8zM8 8h4v8h-4v-8zM14 8h4v8h-4v-8z"></path>
</symbol>
<symbol id="icon-map" viewBox="0 0 20 20">
<path d="M0 0l6 4 8-4 6 4v16l-6-4-8 4-6-4v-16zM7 6v11l6-3v-11l-6 3z"></path>
</symbol>
<symbol id="icon-dial-pad" viewBox="0 0 20 20">
<path d="M6 0h-2c-0.552 0-1 0.448-1 1v2c0 0.552 0.448 1 1 1h2c0.552 0 1-0.448 1-1v-2c0-0.552-0.448-1-1-1zM11 0h-2c-0.552 0-1 0.448-1 1v2c0 0.552 0.448 1 1 1h2c0.552 0 1-0.448 1-1v-2c0-0.552-0.448-1-1-1zM16 0h-2c-0.552 0-1 0.448-1 1v2c0 0.552 0.448 1 1 1h2c0.552 0 1-0.448 1-1v-2c0-0.552-0.448-1-1-1zM6 5h-2c-0.552 0-1 0.448-1 1v2c0 0.552 0.448 1 1 1h2c0.552 0 1-0.448 1-1v-2c0-0.552-0.448-1-1-1zM11 5h-2c-0.552 0-1 0.448-1 1v2c0 0.552 0.448 1 1 1h2c0.552 0 1-0.448 1-1v-2c0-0.552-0.448-1-1-1zM16 5h-2c-0.552 0-1 0.448-1 1v2c0 0.552 0.448 1 1 1h2c0.552 0 1-0.448 1-1v-2c0-0.552-0.448-1-1-1zM6 10h-2c-0.552 0-1 0.448-1 1v2c0 0.552 0.448 1 1 1h2c0.552 0 1-0.448 1-1v-2c0-0.552-0.448-1-1-1zM11 10h-2c-0.552 0-1 0.448-1 1v2c0 0.552 0.448 1 1 1h2c0.552 0 1-0.448 1-1v-2c0-0.552-0.448-1-1-1zM11 16h-2c-0.552 0-1 0.448-1 1v2c0 0.552 0.448 1 1 1h2c0.552 0 1-0.448 1-1v-2c0-0.552-0.448-1-1-1zM16 10h-2c-0.552 0-1 0.448-1 1v2c0 0.552 0.448 1 1 1h2c0.552 0 1-0.448 1-1v-2c0-0.552-0.448-1-1-1z"></path>
</symbol>
<symbol id="icon-atlassian" viewBox="0 0 32 32">
<path fill="#0052cc" style="fill: var(--color1, #0052cc)" d="M25.747 31.943h-4.8c-0.056 0.007-0.12 0.010-0.185 0.010-0.707 0-1.312-0.437-1.56-1.055l-0.004-0.011c-1.776-3.553-3.707-7.051-5.316-10.728-1.191-2.508-1.887-5.45-1.887-8.555 0-3.978 1.142-7.689 3.117-10.823l-0.050 0.084c0.221-0.375 0.693-0.833 1.055-0.833s0.791 0.5 0.987 0.888q7.259 14.52 14.531 29.051c0.723 1.388 0.389 1.957-1.207 1.972zM6.316 31.943h-4.929c-1.388 0-1.693-0.556-1.083-1.777q3.733-7.384 7.399-14.74c0.667-1.388 1.193-1.388 2.123-0.236 2.437 2.831 3.922 6.544 3.922 10.603 0 1.526-0.21 3.004-0.602 4.405l0.027-0.115c-0.459 1.763-0.709 1.873-2.485 1.873z"></path>
</symbol>
<symbol id="icon-autotask" viewBox="0 0 32 32">
<path fill="#e51937" style="fill: var(--color2, #e51937)" d="M23.907 15.501l3.709 9.317h-5.731l-2.433-6.315-13.18 8.889-4.939-10.593h1.087l5.853 4.557 10.147-5.531-1.447-3.76-1.557 3.308-6.584 3.621 4.737-12.456h6.769l2.696 6.773 8.965-4.887v-8.427h-32v32h32v-21.957z"></path>
</symbol>
<symbol id="icon-co-op" viewBox="0 0 32 32">
<path fill="#00b1e7" style="fill: var(--color3, #00b1e7)" d="M31.033 7.020c0-1.136-0.176-2.271-0.48-3.407-0.437-1.355-1.441-2.445-2.708-2.925-1.21-0.436-2.606-0.688-4.061-0.688s-2.851 0.252-4.147 0.715l0.086-0.027c-1.331 0.47-2.339 1.55-2.7 2.896l-0.007 0.030c-0.291 1.015-0.459 2.18-0.459 3.385s0.168 2.37 0.481 3.474l-0.022-0.090c0.435 1.353 1.44 2.445 2.707 2.925 1.101 0.418 2.375 0.661 3.705 0.661 0.125 0 0.25-0.002 0.374-0.006l-0.018 0.001c1.399 0 2.751-0.261 4.061-0.655 1.331-0.47 2.34-1.55 2.701-2.896l0.007-0.030c0.305-1.092 0.48-2.227 0.48-3.363zM26.623 7.020c0 0.524-0.087 1.136-0.261 1.616-0.219 0.699-0.831 1.267-1.573 1.441-0.315 0.062-0.677 0.098-1.047 0.098s-0.732-0.036-1.083-0.104l0.036 0.006c-0.767-0.133-1.375-0.696-1.57-1.428l-0.003-0.014c-0.167-0.496-0.263-1.066-0.263-1.659s0.096-1.164 0.274-1.697l-0.011 0.038c0.217-0.699 0.829-1.267 1.573-1.441 0.315-0.062 0.677-0.098 1.047-0.098s0.732 0.036 1.083 0.104l-0.036-0.006c0.767 0.134 1.374 0.697 1.57 1.428l0.003 0.014c0.173 0.611 0.261 1.179 0.261 1.703zM14.963 25.407c0.291-1.015 0.458-2.18 0.458-3.385s-0.167-2.37-0.48-3.474l0.022 0.090c-0.436-1.355-1.441-2.445-2.707-2.927-1.21-0.436-2.606-0.688-4.061-0.688s-2.851 0.252-4.147 0.715l0.086-0.027c-1.331 0.471-2.34 1.551-2.701 2.897l-0.007 0.030c-0.291 1.015-0.458 2.18-0.458 3.385s0.167 2.37 0.48 3.474l-0.022-0.090c0.437 1.353 1.441 2.445 2.708 2.924 1.21 0.436 2.606 0.688 4.061 0.688s2.851-0.252 4.147-0.715l-0.086 0.027c1.303-0.512 2.294-1.574 2.698-2.892l0.008-0.032zM11.032 22.043c0 0.524-0.088 1.136-0.263 1.616-0.243 0.718-0.829 1.26-1.557 1.438l-0.015 0.003c-0.315 0.062-0.677 0.098-1.048 0.098s-0.733-0.036-1.084-0.104l0.036 0.006c-0.766-0.135-1.372-0.697-1.569-1.428l-0.003-0.014c-0.166-0.496-0.262-1.066-0.262-1.659s0.096-1.164 0.273-1.697l-0.011 0.038c0.243-0.718 0.828-1.261 1.557-1.438l0.015-0.003c0.315-0.063 0.677-0.099 1.048-0.099s0.733 0.036 1.083 0.105l-0.035-0.006c0.766 0.135 1.372 0.697 1.569 1.428l0.003 0.014c0.175 0.568 0.263 1.135 0.263 1.703zM11.032 6.976h4.411c0-1.135-0.175-2.271-0.48-3.361-0.436-1.355-1.441-2.445-2.707-2.925-1.21-0.436-2.606-0.688-4.061-0.688s-2.851 0.252-4.147 0.715l0.086-0.027c-1.355 0.523-2.359 1.615-2.709 2.968-0.291 1.015-0.458 2.18-0.458 3.385s0.167 2.37 0.48 3.474l-0.022-0.090c0.437 1.353 1.441 2.445 2.708 2.925 1.309 0.48 2.664 0.656 4.061 0.656s2.751-0.263 4.061-0.656c1.331-0.47 2.339-1.551 2.7-2.896l0.007-0.030c0.044-0.175 0.087-0.393 0.175-0.568l-4.148-1.921c-0.044 0.261-0.087 0.48-0.175 0.743-0.217 0.699-0.829 1.267-1.572 1.441-0.315 0.062-0.677 0.098-1.048 0.098s-0.733-0.036-1.084-0.104l0.036 0.006c-0.766-0.135-1.372-0.697-1.569-1.428l-0.003-0.014c-0.166-0.496-0.262-1.066-0.262-1.659s0.096-1.164 0.273-1.697l-0.011 0.038c0.219-0.699 0.829-1.267 1.572-1.443 0.315-0.062 0.677-0.098 1.048-0.098s0.733 0.036 1.084 0.104l-0.036-0.006c0.767 0.135 1.373 0.698 1.569 1.429l0.003 0.014c0.131 0.567 0.219 1.091 0.219 1.615zM16.927 18.681c-0.301 1.020-0.476 2.192-0.48 3.405v9.914h4.411v-9.957c0-0.524 0.087-1.136 0.261-1.616 0.217-0.699 0.829-1.267 1.573-1.441 0.315-0.063 0.677-0.099 1.047-0.099s0.732 0.036 1.083 0.105l-0.035-0.006c0.766 0.135 1.373 0.697 1.57 1.428l0.003 0.014c0.166 0.496 0.262 1.066 0.262 1.659s-0.096 1.164-0.273 1.697l0.011-0.038c-0.219 0.697-0.831 1.267-1.528 1.44-0.315 0.063-0.677 0.099-1.048 0.099s-0.733-0.036-1.083-0.105l0.035 0.006c-0.132-0.041-0.305-0.085-0.436-0.131l1.484 4.105c1.399 0 2.751-0.263 4.061-0.655 1.331-0.471 2.339-1.551 2.701-2.896l0.007-0.030c0.291-1.015 0.458-2.18 0.458-3.385s-0.167-2.37-0.48-3.474l0.022 0.090c-0.437-1.355-1.441-2.445-2.708-2.927-1.21-0.436-2.606-0.688-4.061-0.688s-2.851 0.252-4.147 0.715l0.086-0.027c-1.355 0.351-2.359 1.443-2.796 2.797z"></path>
</symbol>
<symbol id="icon-codeforces" viewBox="0 0 32 32">
<path fill="#1f8acb" style="fill: var(--color4, #1f8acb)" d="M6 10c1.104 0 2 0.896 2 2v14c0 1.104-0.896 2-2 2h-4c-1.103 0-2-0.896-2-2v-14c0-1.104 0.897-2 2-2zM18 4c1.104 0 2 0.896 2 2v20c0 1.104-0.896 2-2 2h-4c-1.103 0-2-0.896-2-2v-20c0-1.104 0.897-2 2-2zM30 14c1.104 0 2 0.896 2 2v10c0 1.104-0.896 2-2 2h-4c-1.104 0-2-0.896-2-2v-10c0-1.104 0.896-2 2-2z"></path>
</symbol>
<symbol id="icon-dashlane" viewBox="0 0 32 32">
<path fill="#007c97" style="fill: var(--color5, #007c97)" d="M20.84 13.387c-0.627-0.524-1.151-1.36-1.151-2.197 0-0.313 0.104-0.836 0.209-1.151 0-0.208 0.104-0.208 0.209-0.313 0.941-0.209 1.36-0.209 1.464-0.313 0.209-0.419 0.313-0.941 0.313-0.941l-7.32-2.301c0 0 0.419 1.151 0.732 1.256l3.347 1.464c0 0-1.673 0.417-2.615 0.627l-0.209 0.105c0 0 0.313 0.627 0.941 0.941 0.627-0.209 1.777-0.419 1.777-0.419-1.568 3.137-4.915 5.228-8.471 5.228h-1.253c-0.42 0-0.524 0.315-0.211 0.524 0.627 0.313 1.151 0.94 1.36 1.568 0.104 0.419-0.105 0.733-0.419 0.941-0.627 0.523-2.3 1.673-3.869 2.928-0.202-0.301-0.378-0.646-0.512-1.011l-0.011-0.034c-1.464-3.243-2.196-7.844-2.196-13.909v-0.209l12.549-4.077 12.548 4.077v0.105c0 2.196-0.104 4.288-0.313 6.065v0.209h2.092v-0.105c0.209-1.881 0.313-3.869 0.313-6.065v-1.672l-14.64-4.707-14.64 4.707v1.568c0 6.379 0.731 11.189 2.3 14.745 0.209 0.523 0.523 1.045 0.732 1.464-1.255 0.941-2.301 1.673-2.301 1.673l0.627 1.045 8.053-5.752c4.094-2.815 9.158-4.496 14.614-4.496 0.009 0 0.018 0 0.027 0h2.509c-0.313 1.987-0.837 3.764-1.464 5.228-0.733 1.673-1.673 3.137-2.928 4.601-0.941 1.151-2.092 2.092-3.347 2.928-2.092 1.464-3.973 2.092-4.079 2.196-0.209-0.104-1.987-0.732-4.079-2.196-1.36-0.941-2.509-1.881-3.451-3.032-0.313-0.313-0.627-0.733-0.941-1.151l-0.104-0.104-1.673 1.253 0.104 0.107c0.419 0.521 0.733 0.94 1.047 1.359 1.045 1.255 2.3 2.3 3.66 3.241 2.3 1.569 4.287 2.301 4.6 2.405 0 0 0.419 0.105 0.524 0.209h0.209c0.209 0 0.523-0.209 0.523-0.209 0.419-0.104 2.3-0.836 4.6-2.405 1.373-0.973 2.573-2.039 3.645-3.223l0.017-0.019c1.282-1.472 2.369-3.161 3.19-4.996l0.051-0.128c0.794-1.764 1.381-3.811 1.661-5.955l0.012-0.111h1.779c0.104-0.417 0.208-1.149 0.208-1.149h-6.483c-2.405-0.104-3.243 0-3.869-0.417z"></path>
</symbol>
<symbol id="icon-gnuprivacyguard" viewBox="0 0 32 32">
<path fill="#0093dd" style="fill: var(--color6, #0093dd)" d="M3.957 15.444h1.699v-5.093c0-0.001 0-0.003 0-0.004 0-5.714 4.632-10.347 10.347-10.347 0.001 0 0.003 0 0.004 0h-0c0.001 0 0.002 0 0.003 0 5.714 0 10.347 4.632 10.347 10.347 0 0.001 0 0.003 0 0.004v-0 5.044c-0.024 0.013-0.049 0.037-0.075 0.049l-0.013 0.013-0.011 0.012h-0.013l-0.025 0.025h-0.037l-0.024 0.024h-0.027l-0.024 0.013h-0.013l-0.012 0.013-0.012 0.012h-0.013l-0.012 0.012-0.012 0.013-0.013 0.012-0.012 0.012-0.037 0.025-0.025 0.013-0.037 0.024-0.024 0.013-0.027 0.012-0.036 0.024-0.025 0.013-0.013 0.012-0.036 0.025-0.027 0.013-0.061 0.036-0.025 0.013-0.051 0.025h-0.011l-0.076 0.036h-0.025c-0.024 0.013-0.049 0.027-0.087 0.051h-0.013l-0.012 0.013-0.037 0.024-0.024 0.013-0.039 0.024-0.024 0.013h-0.013l-0.037 0.024-0.024 0.013-0.027 0.012c-0.024 0.013-0.061 0.025-0.087 0.037l-0.024 0.013-0.027 0.012-0.049 0.024-0.049 0.027-0.063 0.024-0.063 0.025-0.025 0.012-0.049 0.025-0.025 0.013c-2.060 0.985-5.356 2.021-11.611 2.471-4.483 0.325-7.204 2.297-8.965 4.669zM10.413 15.444h11.161v-5.093c0-0.001 0-0.002 0-0.003 0-3.081-2.498-5.579-5.579-5.579-0.001 0-0.002 0-0.003 0h0c-0 0-0.001 0-0.001 0-3.081 0-5.579 2.498-5.579 5.579 0 0.001 0 0.002 0 0.003v-0zM28.043 17.392v14.608h-20.613c2.272-1.261 3.957-1.136 6.767-1.049 3.82 0.125 8.040-1.473 10.113-3.595 2.072-2.123-0.187-0.5-2.535 0.099-2.347 0.6-6.893 0.663-9.939-0.137 9.564 0.125 13.297-2.959 15.407-5.743 2.111-2.772-0.911-0.487-2.871 0.475-1.96 0.96-5.381 1.636-9.152 1.136 5.693-0.013 10.027-2.859 12.823-5.793z"></path>
</symbol>
<symbol id="icon-gog-dot-com" viewBox="0 0 32 32">
<path fill="#86328a" style="fill: var(--color7, #86328a)" d="M9.533 20.32h-3.72c-0.295 0-0.533 0.239-0.533 0.533v0 2.667c0 0.28 0.24 0.533 0.533 0.533h3.733v1.76h-4.667c-0.747 0-1.36-0.613-1.36-1.373v-4.52c0-0.747 0.613-1.36 1.373-1.36h4.64zM10.88 15.387c0 0.773-0.627 1.4-1.4 1.4h-5.973v-1.8h5.040c0.295 0 0.533-0.239 0.533-0.533v0-5.933c0-0.295-0.239-0.533-0.533-0.533v0h-2.693c-0.004-0-0.009-0-0.013-0-0.295 0-0.533 0.239-0.533 0.533 0 0 0 0 0 0v0 2.693c0 0.307 0.24 0.533 0.533 0.533h2.16v1.8h-3.093c-0.773 0-1.4-0.613-1.4-1.387v-4.587c0-0.76 0.627-1.387 1.4-1.387h4.56c0.773 0 1.4 0.627 1.4 1.387zM28.48 25.813h-1.76v-5.493h-1.24c-0.295 0-0.533 0.239-0.533 0.533v4.96h-1.773v-5.493h-1.24c-0.295 0-0.533 0.239-0.533 0.533v4.96h-1.773v-5.893c0-0.747 0.613-1.36 1.373-1.36h7.48zM28.493 15.387c0 0.773-0.627 1.4-1.4 1.4h-5.973v-1.8h5.040c0.295 0 0.533-0.239 0.533-0.533v0-5.933c0-0.295-0.239-0.533-0.533-0.533v0h-2.707c-0.295 0-0.533 0.239-0.533 0.533v0 2.693c0 0.307 0.24 0.533 0.533 0.533h2.16v1.8h-3.080c-0.773 0-1.4-0.613-1.4-1.387v-4.587c0-0.76 0.627-1.387 1.4-1.387h4.573c0.773 0 1.4 0.627 1.4 1.387zM18.293 6.187h-4.587c-0.773 0-1.387 0.627-1.387 1.387v4.587c0 0.773 0.613 1.387 1.387 1.387h4.587c0.76 0 1.387-0.613 1.387-1.387v-4.587c0-0.76-0.627-1.387-1.387-1.387zM17.893 8.52v2.693c0 0.295-0.239 0.533-0.533 0.533v0h-2.707c-0.295 0-0.533-0.239-0.533-0.533v0-2.68c0-0.293 0.227-0.533 0.533-0.533h2.68c0.307 0 0.533 0.24 0.56 0.52zM16.84 18.56h-4.52c-0.76 0-1.373 0.613-1.373 1.36v4.52c0 0.76 0.613 1.373 1.373 1.373h4.52c0.76 0 1.373-0.613 1.373-1.373v-4.52c0-0.747-0.613-1.36-1.373-1.36zM16.44 20.853v2.667c0 0.295-0.239 0.533-0.533 0.533v0-0.013h-2.653c-0.295 0-0.533-0.239-0.533-0.533v0-2.653c0-0.293 0.24-0.533 0.533-0.533h2.667c0.293 0 0.533 0.24 0.52 0.533zM31.32 1.467c-0.421-0.428-1.006-0.693-1.653-0.693h-27.333c-0.004-0-0.009-0-0.013-0-1.281 0-2.32 1.039-2.32 2.32 0 0.005 0 0.009 0 0.014v-0.001 25.787c-0 0.004-0 0.009-0 0.013 0 1.281 1.039 2.32 2.32 2.32 0.005 0 0.009 0 0.014-0h27.333c0.004 0 0.009 0 0.013 0 1.281 0 2.32-1.039 2.32-2.32 0-0.005 0-0.009-0-0.014v0.001-25.787c0-0.64-0.267-1.227-0.68-1.653zM31.32 28.893c0 0.004 0 0.009 0 0.013 0 0.906-0.734 1.64-1.64 1.64-0.005 0-0.009-0-0.014-0h-27.333c-0.008 0-0.017 0-0.027 0-0.906 0-1.64-0.734-1.64-1.64 0-0.005 0-0.010 0-0.014v0.001-25.787c-0-0.004-0-0.009-0-0.013 0-0.906 0.734-1.64 1.64-1.64 0.005 0 0.009 0 0.014 0h27.333c0.913 0 1.653 0.74 1.653 1.653v0z"></path>
</symbol>
<symbol id="icon-bell" viewBox="0 0 32 32">
<path d="M32.047 25c0-9-8-7-8-14 0-0.58-0.056-1.076-0.158-1.498-0.526-3.532-2.88-6.366-5.93-7.23 0.027-0.123 0.041-0.251 0.041-0.382 0-1.040-0.9-1.891-2-1.891s-2 0.851-2 1.891c0 0.131 0.014 0.258 0.041 0.382-3.421 0.969-5.966 4.416-6.039 8.545-0.001 0.060-0.002 0.121-0.002 0.183 0 7-8 5-8 14 0 2.382 5.331 4.375 12.468 4.878 0.673 1.263 2.002 2.122 3.532 2.122s2.86-0.86 3.532-2.122c7.137-0.503 12.468-2.495 12.468-4.878 0-0.007-0.001-0.014-0.001-0.021l0.048 0.021zM25.82 26.691c-1.695 0.452-3.692 0.777-5.837 0.958-0.178-2.044-1.893-3.648-3.984-3.648s-3.805 1.604-3.984 3.648c-2.144-0.18-4.142-0.506-5.837-0.958-2.332-0.622-3.447-1.318-3.855-1.691 0.408-0.372 1.523-1.068 3.855-1.691 2.712-0.724 6.199-1.122 9.82-1.122s7.109 0.398 9.82 1.122c2.332 0.622 3.447 1.318 3.855 1.691-0.408 0.372-1.523 1.068-3.855 1.691z"></path>
</symbol>
<symbol id="icon-keyboard" viewBox="0 0 36 32">
<path d="M34 4h-32c-1.1 0-2 0.9-2 2v20c0 1.1 0.9 2 2 2h32c1.1 0 2-0.9 2-2v-20c0-1.1-0.9-2-2-2zM20 8h4v4h-4v-4zM26 14v4h-4v-4h4zM14 8h4v4h-4v-4zM20 14v4h-4v-4h4zM8 8h4v4h-4v-4zM14 14v4h-4v-4h4zM4 8h2v4h-2v-4zM4 14h4v4h-4v-4zM6 24h-2v-4h2v4zM24 24h-16v-4h16v4zM32 24h-6v-4h6v4zM32 18h-4v-4h4v4zM32 12h-6v-4h6v4z"></path>
</symbol>
<symbol id="icon-list2" viewBox="0 0 32 32">
<path d="M12 2h20v4h-20v-4zM12 14h20v4h-20v-4zM12 26h20v4h-20v-4zM0 4c0-2.209 1.791-4 4-4s4 1.791 4 4c0 2.209-1.791 4-4 4s-4-1.791-4-4zM0 16c0-2.209 1.791-4 4-4s4 1.791 4 4c0 2.209-1.791 4-4 4s-4-1.791-4-4zM0 28c0-2.209 1.791-4 4-4s4 1.791 4 4c0 2.209-1.791 4-4 4s-4-1.791-4-4z"></path>
</symbol>
<symbol id="icon-menu" viewBox="0 0 32 32">
<path d="M2 6h28v6h-28zM2 14h28v6h-28zM2 22h28v6h-28z"></path>
</symbol>
<symbol id="icon-radio-checked" viewBox="0 0 32 32">
<path d="M16 0c-8.837 0-16 7.163-16 16s7.163 16 16 16 16-7.163 16-16-7.163-16-16-16zM16 28c-6.627 0-12-5.373-12-12s5.373-12 12-12c6.627 0 12 5.373 12 12s-5.373 12-12 12zM10 16c0-3.314 2.686-6 6-6s6 2.686 6 6c0 3.314-2.686 6-6 6s-6-2.686-6-6z"></path>
</symbol>
<symbol id="icon-insert-template" viewBox="0 0 32 32">
<path d="M12 6h4v2h-4zM18 6h4v2h-4zM28 6v8h-6v-2h4v-4h-2v-2zM10 12h4v2h-4zM16 12h4v2h-4zM6 8v4h2v2h-4v-8h6v2zM12 18h4v2h-4zM18 18h4v2h-4zM28 18v8h-6v-2h4v-4h-2v-2zM10 24h4v2h-4zM16 24h4v2h-4zM6 20v4h2v2h-4v-8h6v2zM30 2h-28v28h28v-28zM32 0v0 32h-32v-32h32z"></path>
</symbol>
<symbol id="icon-facebook" viewBox="0 0 32 32">
<path d="M19 6h5v-6h-5c-3.86 0-7 3.14-7 7v3h-4v6h4v16h6v-16h5l1-6h-6v-3c0-0.542 0.458-1 1-1z"></path>
</symbol>
<symbol id="icon-instagram" viewBox="0 0 32 32">
<path d="M16 2.881c4.275 0 4.781 0.019 6.462 0.094 1.563 0.069 2.406 0.331 2.969 0.55 0.744 0.288 1.281 0.638 1.837 1.194 0.563 0.563 0.906 1.094 1.2 1.838 0.219 0.563 0.481 1.412 0.55 2.969 0.075 1.688 0.094 2.194 0.094 6.463s-0.019 4.781-0.094 6.463c-0.069 1.563-0.331 2.406-0.55 2.969-0.288 0.744-0.637 1.281-1.194 1.837-0.563 0.563-1.094 0.906-1.837 1.2-0.563 0.219-1.413 0.481-2.969 0.55-1.688 0.075-2.194 0.094-6.463 0.094s-4.781-0.019-6.463-0.094c-1.563-0.069-2.406-0.331-2.969-0.55-0.744-0.288-1.281-0.637-1.838-1.194-0.563-0.563-0.906-1.094-1.2-1.837-0.219-0.563-0.481-1.413-0.55-2.969-0.075-1.688-0.094-2.194-0.094-6.463s0.019-4.781 0.094-6.463c0.069-1.563 0.331-2.406 0.55-2.969 0.288-0.744 0.638-1.281 1.194-1.838 0.563-0.563 1.094-0.906 1.838-1.2 0.563-0.219 1.412-0.481 2.969-0.55 1.681-0.075 2.188-0.094 6.463-0.094zM16 0c-4.344 0-4.887 0.019-6.594 0.094-1.7 0.075-2.869 0.35-3.881 0.744-1.056 0.412-1.95 0.956-2.837 1.85-0.894 0.888-1.438 1.781-1.85 2.831-0.394 1.019-0.669 2.181-0.744 3.881-0.075 1.713-0.094 2.256-0.094 6.6s0.019 4.887 0.094 6.594c0.075 1.7 0.35 2.869 0.744 3.881 0.413 1.056 0.956 1.95 1.85 2.837 0.887 0.887 1.781 1.438 2.831 1.844 1.019 0.394 2.181 0.669 3.881 0.744 1.706 0.075 2.25 0.094 6.594 0.094s4.888-0.019 6.594-0.094c1.7-0.075 2.869-0.35 3.881-0.744 1.050-0.406 1.944-0.956 2.831-1.844s1.438-1.781 1.844-2.831c0.394-1.019 0.669-2.181 0.744-3.881 0.075-1.706 0.094-2.25 0.094-6.594s-0.019-4.887-0.094-6.594c-0.075-1.7-0.35-2.869-0.744-3.881-0.394-1.063-0.938-1.956-1.831-2.844-0.887-0.887-1.781-1.438-2.831-1.844-1.019-0.394-2.181-0.669-3.881-0.744-1.712-0.081-2.256-0.1-6.6-0.1v0z"></path>
<path d="M16 7.781c-4.537 0-8.219 3.681-8.219 8.219s3.681 8.219 8.219 8.219 8.219-3.681 8.219-8.219c0-4.537-3.681-8.219-8.219-8.219zM16 21.331c-2.944 0-5.331-2.387-5.331-5.331s2.387-5.331 5.331-5.331c2.944 0 5.331 2.387 5.331 5.331s-2.387 5.331-5.331 5.331z"></path>
<path d="M26.462 7.456c0 1.060-0.859 1.919-1.919 1.919s-1.919-0.859-1.919-1.919c0-1.060 0.859-1.919 1.919-1.919s1.919 0.859 1.919 1.919z"></path>
</symbol>
<symbol id="icon-twitter" viewBox="0 0 32 32">
<path d="M32 7.075c-1.175 0.525-2.444 0.875-3.769 1.031 1.356-0.813 2.394-2.1 2.887-3.631-1.269 0.75-2.675 1.3-4.169 1.594-1.2-1.275-2.906-2.069-4.794-2.069-3.625 0-6.563 2.938-6.563 6.563 0 0.512 0.056 1.012 0.169 1.494-5.456-0.275-10.294-2.888-13.531-6.862-0.563 0.969-0.887 2.1-0.887 3.3 0 2.275 1.156 4.287 2.919 5.463-1.075-0.031-2.087-0.331-2.975-0.819 0 0.025 0 0.056 0 0.081 0 3.181 2.263 5.838 5.269 6.437-0.55 0.15-1.131 0.231-1.731 0.231-0.425 0-0.831-0.044-1.237-0.119 0.838 2.606 3.263 4.506 6.131 4.563-2.25 1.762-5.075 2.813-8.156 2.813-0.531 0-1.050-0.031-1.569-0.094 2.913 1.869 6.362 2.95 10.069 2.95 12.075 0 18.681-10.006 18.681-18.681 0-0.287-0.006-0.569-0.019-0.85 1.281-0.919 2.394-2.075 3.275-3.394z"></path>
</symbol>
<symbol id="icon-twitch" viewBox="0 0 32 32">
<path d="M3 0l-3 5v23h8v4h4l4-4h5l9-9v-19h-27zM26 17l-5 5h-5l-4 4v-4h-6v-18h20v13z"></path>
<path d="M19 8h3v8h-3v-8z"></path>
<path d="M13 8h3v8h-3v-8z"></path>
</symbol>
</defs>
</svg>
