<svg aria-hidden="true" style="position: absolute; width: 0; height: 0; overflow: hidden;" version="1.1" xmlns="http://www.w3.org/2000/svg" xmlns:xlink="http://www.w3.org/1999/xlink">
<defs>
<symbol id="icon-buoy" viewBox="0 0 20 20">
<path d="M17.16 6.42c-0.791-1.555-2.025-2.789-3.535-3.559l-0.045-0.021-1.34 2.69c0.968 0.494 1.736 1.262 2.217 2.202l0.013 0.028 2.69-1.34zM17.16 13.58l-2.69-1.34c-0.494 0.968-1.262 1.736-2.202 2.217l-0.028 0.013 1.34 2.69c1.555-0.791 2.789-2.025 3.559-3.535l0.021-0.045zM6.42 2.84c-1.555 0.791-2.789 2.025-3.559 3.535l-0.021 0.045 2.69 1.34c0.494-0.968 1.262-1.736 2.202-2.217l0.028-0.013-1.34-2.69zM2.84 13.58c0.791 1.555 2.025 2.789 3.535 3.559l0.045 0.021 1.34-2.69c-0.968-0.494-1.736-1.262-2.217-2.202l-0.013-0.028-2.69 1.34zM10 20c-5.523 0-10-4.477-10-10s4.477-10 10-10v0c5.523 0 10 4.477 10 10s-4.477 10-10 10v0zM10 13c1.657 0 3-1.343 3-3s-1.343-3-3-3v0c-1.657 0-3 1.343-3 3s1.343 3 3 3v0z"></path>
</symbol>
<symbol id="icon-film" viewBox="0 0 20 20">
<path d="M0 4c0-1.1 0.9-2 2-2h16c1.105 0 2 0.895 2 2v0 12c0 1.105-0.895 2-2 2v0h-16c-1.105 0-2-0.895-2-2v0-12zM6 4v12h8v-12h-8zM2 5v2h2v-2h-2zM2 9v2h2v-2h-2zM2 13v2h2v-2h-2zM16 5v2h2v-2h-2zM16 9v2h2v-2h-2zM16 13v2h2v-2h-2zM8 7l5 3-5 3v-6z"></path>
</symbol>
<symbol id="icon-library" viewBox="0 0 20 20">
<path d="M0 6l10-6 10 6v2h-20v-2zM0 18h20v2h-20v-2zM2 16h16v2h-16v-2zM2 8h4v8h-4v-8zM8 8h4v8h-4v-8zM14 8h4v8h-4v-8z"></path>
</symbol>
<symbol id="icon-map" viewBox="0 0 20 20">
<path d="M0 0l6 4 8-4 6 4v16l-6-4-8 4-6-4v-16zM7 6v11l6-3v-11l-6 3z"></path>
</symbol>
<symbol id="icon-dial-pad" viewBox="0 0 20 20">
<path d="M6 0h-2c-0.552 0-1 0.448-1 1v2c0 0.552 0.448 1 1 1h2c0.552 0 1-0.448 1-1v-2c0-0.552-0.448-1-1-1zM11 0h-2c-0.552 0-1 0.448-1 1v2c0 0.552 0.448 1 1 1h2c0.552 0 1-0.448 1-1v-2c0-0.552-0.448-1-1-1zM16 0h-2c-0.552 0-1 0.448-1 1v2c0 0.552 0.448 1 1 1h2c0.552 0 1-0.448 1-1v-2c0-0.552-0.448-1-1-1zM6 5h-2c-0.552 0-1 0.448-1 1v2c0 0.552 0.448 1 1 1h2c0.552 0 1-0.448 1-1v-2c0-0.552-0.448-1-1-1zM11 5h-2c-0.552 0-1 0.448-1 1v2c0 0.552 0.448 1 1 1h2c0.552 0 1-0.448 1-1v-2c0-0.552-0.448-1-1-1zM16 5h-2c-0.552 0-1 0.448-1 1v2c0 0.552 0.448 1 1 1h2c0.552 0 1-0.448 1-1v-2c0-0.552-0.448-1-1-1zM6 10h-2c-0.552 0-1 0.448-1 1v2c0 0.552 0.448 1 1 1h2c0.552 0 1-0.448 1-1v-2c0-0.552-0.448-1-1-1zM11 10h-2c-0.552 0-1 0.448-1 1v2c0 0.552 0.448 1 1 1h2c0.552 0 1-0.448 1-1v-2c0-0.552-0.448-1-1-1zM11 16h-2c-0.552 0-1 0.448-1 1v2c0 0.552 0.448 1 1 1h2c0.552 0 1-0.448 1-1v-2c0-0.552-0.448-1-1-1zM16 10h-2c-0.552 0-1 0.448-1 1v2c0 0.552 0.448 1 1 1h2c0.552 0 1-0.448 1-1v-2c0-0.552-0.448-1-1-1z"></path>
</symbol>
<symbol id="icon-atlassian" viewBox="0 0 32 32">
<path fill="#0052cc" style="fill: var(--color1, #0052cc)" d="M25.747 31.943h-4.8c-0.056 0.007-0.12 0.010-0.185 0.010-0.707 0-1.312-0.437-1.56-1.055l-0.004-0.011c-1.776-3.553-3.707-7.051-5.316-10.728-1.191-2.508-1.887-5.45-1.887-8.555 0-3.978 1.142-7.689 3.117-10.823l-0.050 0.084c0.221-0.375 0.693-0.833 1.055-0.833s0.791 0.5 0.987 0.888q7.259 14.52 14.531 29.051c0.723 1.388 0.389 1.957-1.207 1.972zM6.316 31.943h-4.929c-1.388 0-1.693-0.556-1.083-1.777q3.733-7.384 7.399-14.74c0.667-1.388 1.193-1.388 2.123-0.236 2.437 2.831 3.922 6.544 3.922 10.603 0 1.526-0.21 3.004-0.602 4.405l0.027-0.115c-0.459 1.763-0.709 1.873-2.485 1.873z"></path>
</symbol>
<symbol id="icon-autotask" viewBox="0 0 32 32">
<path fill="#e51937" style="fill: var(--color2, #e51937)" d="M23.907 15.501l3.709 9.317h-5.731l-2.433-6.315-13.18 8.889-4.939-10.593h1.087l5.853 4.557 10.147-5.531-1.447-3.76-1.557 3.308-6.584 3.621 4.737-12.456h6.769l2.696 6.773 8.965-4.887v-8.427h-32v32h32v-21.957z"></path>
</symbol>
<symbol id="icon-co-op" viewBox="0 0 32 32">
<path fill="#00b1e7" style="fill: var(--color3, #00b1e7)" d="M31.033 7.020c0-1.136-0.176-2.271-0.48-3.407-0.437-1.355-1.441-2.445-2.708-2.925-1.21-0.436-2.606-0.688-4.061-0.688s-2.851 0.252-4.147 0.715l0.086-0.027c-1.331 0.47-2.339 1.55-2.7 2.896l-0.007 0.030c-0.291 1.015-0.459 2.18-0.459 3.385s0.168 2.37 0.481 3.474l-0.022-0.090c0.435 1.353 1.44 2.445 2.707 2.925 1.101 0.418 2.375 0.661 3.705 0.661 0.125 0 0.25-0.002 0.374-0.006l-0.018 0.001c1.399 0 2.751-0.261 4.061-0.655 1.331-0.47 2.34-1.55 2.701-2.896l0.007-0.030c0.305-1.092 0.48-2.227 0.48-3.363zM26.623 7.020c0 0.524-0.087 1.136-0.261 1.616-0.219 0.699-0.831 1.267-1.573 1.441-0.315 0.062-0.677 0.098-1.047 0.098s-0.732-0.036-1.083-0.104l0.036 0.006c-0.767-0.133-1.375-0.696-1.57-1.428l-0.003-0.014c-0.167-0.496-0.263-1.066-0.263-1.659s0.096-1.164 0.274-1.697l-0.011 0.038c0.217-0.699 0.829-1.267 1.573-1.441 0.315-0.062 0.677-0.098 1.047-0.098s0.732 0.036 1.083 0.104l-0.036-0.006c0.767 0.134 1.374 0.697 1.57 1.428l0.003 0.014c0.173 0.611 0.261 1.179 0.261 1.703zM14.963 25.407c0.291-1.015 0.458-2.18 0.458-3.385s-0.167-2.37-0.48-3.474l0.022 0.090c-0.436-1.355-1.441-2.445-2.707-2.927-1.21-0.436-2.606-0.688-4.061-0.688s-2.851 0.252-4.147 0.715l0.086-0.027c-1.331 0.471-2.34 1.551-2.701 2.897l-0.007 0.030c-0.291 1.015-0.458 2.18-0.458 3.385s0.167 2.37 0.48 3.474l-0.022-0.090c0.437 1.353 1.441 2.445 2.708 2.924 1.21 0.436 2.606 0.688 4.061 0.688s2.851-0.252 4.147-0.715l-0.086 0.027c1.303-0.512 2.294-1.574 2.698-2.892l0.008-0.032zM11.032 22.043c0 0.524-0.088 1.136-0.263 1.616-0.243 0.718-0.829 1.26-1.557 1.438l-0.015 0.003c-0.315 0.062-0.677 0.098-1.048 0.098s-0.733-0.036-1.084-0.104l0.036 0.006c-0.766-0.135-1.372-0.697-1.569-1.428l-0.003-0.014c-0.166-0.496-0.262-1.066-0.262-1.659s0.096-1.164 0.273-1.697l-0.011 0.038c0.243-0.718 0.828-1.261 1.557-1.438l0.015-0.003c0.315-0.063 0.677-0.099 1.048-0.099s0.733 0.036 1.083 0.105l-0.035-0.006c0.766 0.135 1.372 0.697 1.569 1.428l0.003 0.014c0.175 0.568 0.263 1.135 0.263 1.703zM11.032 6.976h4.411c0-1.135-0.175-2.271-0.48-3.361-0.436-1.355-1.441-2.445-2.707-2.925-1.21-0.436-2.606-0.688-4.061-0.688s-2.851 0.252-4.147 0.715l0.086-0.027c-1.355 0.523-2.359 1.615-2.709 2.968-0.291 1.015-0.458 2.18-0.458 3.385s0.167 2.37 0.48 3.474l-0.022-0.090c0.437 1.353 1.441 2.445 2.708 2.925 1.309 0.48 2.664 0.656 4.061 0.656s2.751-0.263 4.061-0.656c1.331-0.47 2.339-1.551 2.7-2.896l0.007-0.030c0.044-0.175 0.087-0.393 0.175-0.568l-4.148-1.921c-0.044 0.261-0.087 0.48-0.175 0.743-0.217 0.699-0.829 1.267-1.572 1.441-0.315 0.062-0.677 0.098-1.048 0.098s-0.733-0.036-1.084-0.104l0.036 0.006c-0.766-0.135-1.372-0.697-1.569-1.428l-0.003-0.014c-0.166-0.496-0.262-1.066-0.262-1.659s0.096-1.164 0.273-1.697l-0.011 0.038c0.219-0.699 0.829-1.267 1.572-1.443 0.315-0.062 0.677-0.098 1.048-0.098s0.733 0.036 1.084 0.104l-0.036-0.006c0.767 0.135 1.373 0.698 1.569 1.429l0.003 0.014c0.131 0.567 0.219 1.091 0.219 1.615zM16.927 18.681c-0.301 1.020-0.476 2.192-0.48 3.405v9.914h4.411v-9.957c0-0.524 0.087-1.136 0.261-1.616 0.217-0.699 0.829-1.267 1.573-1.441 0.315-0.063 0.677-0.099 1.047-0.099s0.732 0.036 1.083 0.105l-0.035-0.006c0.766 0.135 1.373 0.697 1.57 1.428l0.003 0.014c0.166 0.496 0.262 1.066 0.262 1.659s-0.096 1.164-0.273 1.697l0.011-0.038c-0.219 0.697-0.831 1.267-1.528 1.44-0.315 0.063-0.677 0.099-1.048 0.099s-0.733-0.036-1.083-0.105l0.035 0.006c-0.132-0.041-0.305-0.085-0.436-0.131l1.484 4.105c1.399 0 2.751-0.263 4.061-0.655 1.331-0.471 2.339-1.551 2.701-2.896l0.007-0.030c0.291-1.015 0.458-2.18 0.458-3.385s-0.167-2.37-0.48-3.474l0.022 0.090c-0.437-1.355-1.441-2.445-2.708-2.927-1.21-0.436-2.606-0.688-4.061-0.688s-2.851 0.252-4.147 0.715l0.086-0.027c-1.355 0.351-2.359 1.443-2.796 2.797z"></path>
</symbol>
<symbol id="icon-codeforces" viewBox="0 0 32 32">
<path fill="#1f8acb" style="fill: var(--color4, #1f8acb)" d="M6 10c1.104 0 2 0.896 2 2v14c0 1.104-0.896 2-2 2h-4c-1.103 0-2-0.896-2-2v-14c0-1.104 0.897-2 2-2zM18 4c1.104 0 2 0.896 2 2v20c0 1.104-0.896 2-2 2h-4c-1.103 0-2-0.896-2-2v-20c0-1.104 0.897-2 2-2zM30 14c1.104 0 2 0.896 2 2v10c0 1.104-0.896 2-2 2h-4c-1.104 0-2-0.896-2-2v-10c0-1.104 0.896-2 2-2z"></path>
</symbol>
<symbol id="icon-dashlane" viewBox="0 0 32 32">
<path fill="#007c97" style="fill: var(--color5, #007c97)" d="M20.84 13.387c-0.627-0.524-1.151-1.36-1.151-2.197 0-0.313 0.104-0.836 0.209-1.151 0-0.208 0.104-0.208 0.209-0.313 0.941-0.209 1.36-0.209 1.464-0.313 0.209-0.419 0.313-0.941 0.313-0.941l-7.32-2.301c0 0 0.419 1.151 0.732 1.256l3.347 1.464c0 0-1.673 0.417-2.615 0.627l-0.209 0.105c0 0 0.313 0.627 0.941 0.941 0.627-0.209 1.777-0.419 1.777-0.419-1.568 3.137-4.915 5.228-8.471 5.228h-1.253c-0.42 0-0.524 0.315-0.211 0.524 0.627 0.313 1.151 0.94 1.36 1.568 0.104 0.419-0.105 0.733-0.419 0.941-0.627 0.523-2.3 1.673-3.869 2.928-0.202-0.301-0.378-0.646-0.512-1.011l-0.011-0.034c-1.464-3.243-2.196-7.844-2.196-13.909v-0.209l12.549-4.077 12.548 4.077v0.105c0 2.196-0.104 4.288-0.313 6.065v0.209h2.092v-0.105c0.209-1.881 0.313-3.869 0.313-6.065v-1.672l-14.64-4.707-14.64 4.707v1.568c0 6.379 0.731 11.189 2.3 14.745 0.209 0.523 0.523 1.045 0.732 1.464-1.255 0.941-2.301 1.673-2.301 1.673l0.627 1.045 8.053-5.752c4.094-2.815 9.158-4.496 14.614-4.496 0.009 0 0.018 0 0.027 0h2.509c-0.313 1.987-0.837 3.764-1.464 5.228-0.733 1.673-1.673 3.137-2.928 4.601-0.941 1.151-2.092 2.092-3.347 2.928-2.092 1.464-3.973 2.092-4.079 2.196-0.209-0.104-1.987-0.732-4.079-2.196-1.36-0.941-2.509-1.881-3.451-3.032-0.313-0.313-0.627-0.733-0.941-1.151l-0.104-0.104-1.673 1.253 0.104 0.107c0.419 0.521 0.733 0.94 1.047 1.359 1.045 1.255 2.3 2.3 3.66 3.241 2.3 1.569 4.287 2.301 4.6 2.405 0 0 0.419 0.105 0.524 0.209h0.209c0.209 0 0.523-0.209 0.523-0.209 0.419-0.104 2.3-0.836 4.6-2.405 1.373-0.973 2.573-2.039 3.645-3.223l0.017-0.019c1.282-1.472 2.369-3.161 3.19-4.996l0.051-0.128c0.794-1.764 1.381-3.811 1.661-5.955l0.012-0.111h1.779c0.104-0.417 0.208-1.149 0.208-1.149h-6.483c-2.405-0.104-3.243 0-3.869-0.417z"></path>
</symbol>
<symbol id="icon-gnuprivacyguard" viewBox="0 0 32 32">
<path fill="#0093dd" style="fill: var(--color6, #0093dd)" d="M3.957 15.444h1.699v-5.093c0-0.001 0-0.003 0-0.004 0-5.714 4.632-10.347 10.347-10.347 0.001 0 0.003 0 0.004 0h-0c0.001 0 0.002 0 0.003 0 5.714 0 10.347 4.632 10.347 10.347 0 0.001 0 0.003 0 0.004v-0 5.044c-0.024 0.013-0.049 0.037-0.075 0.049l-0.013 0.013-0.011 0.012h-0.013l-0.025 0.025h-0.037l-0.024 0.024h-0.027l-0.024 0.013h-0.013l-0.012 0.013-0.012 0.012h-0.013l-0.012 0.012-0.012 0.013-0.013 0.012-0.012 0.012-0.037 0.025-0.025 0.013-0.037 0.024-0.024 0.013-0.027 0.012-0.036 0.024-0.025 0.013-0.013 0.012-0.036 0.025-0.027 0.013-0.061 0.036-0.025 0.013-0.051 0.025h-0.011l-0.076 0.036h-0.025c-0.024 0.013-0.049 0.027-0.087 0.051h-0.013l-0.012 0.013-0.037 0.024-0.024 0.013-0.039 0.024-0.024 0.013h-0.013l-0.037 0.024-0.024 0.013-0.027 0.012c-0.024 0.013-0.061 0.025-0.087 0.037l-0.024 0.013-0.027 0.012-0.049 0.024-0.049 0.027-0.063 0.024-0.063 0.025-0.025 0.012-0.049 0.025-0.025 0.013c-2.060 0.985-5.356 2.021-11.611 2.471-4.483 0.325-7.204 2.297-8.965 4.669zM10.413 15.444h11.161v-5.093c0-0.001 0-0.002 0-0.003 0-3.081-2.498-5.579-5.579-5.579-0.001 0-0.002 0-0.003 0h0c-0 0-0.001 0-0.001 0-3.081 0-5.579 2.498-5.579 5.579 0 0.001 0 0.002 0 0.003v-0zM28.043 17.392v14.608h-20.613c2.272-1.261 3.957-1.136 6.767-1.049 3.82 0.125 8.040-1.473 10.113-3.595 2.072-2.123-0.187-0.5-2.535 0.099-2.347 0.6-6.893 0.663-9.939-0.137 9.564 0.125 13.297-2.959 15.407-5.743 2.111-2.772-0.911-0.487-2.871 0.475-1.96 0.96-5.381 1.636-9.152 1.136 5.693-0.013 10.027-2.859 12.823-5.793z"></path>
</symbol>
<symbol id="icon-gog-dot-com" viewBox="0 0 32 32">
<path fill="#86328a" style="fill: var(--color7, #86328a)" d="M9.533 20.32h-3.72c-0.295 0-0.533 0.239-0.533 0.533v0 2.667c0 0.28 0.24 0.533 0.533 0.533h3.733v1.76h-4.667c-0.747 0-1.36-0.613-1.36-1.373v-4.52c0-0.747 0.613-1.36 1.373-1.36h4.64zM10.88 15.387c0 0.773-0.627 1.4-1.4 1.4h-5.973v-1.8h5.040c0.295 0 0.533-0.239 0.533-0.533v0-5.933c0-0.295-0.239-0.533-0.533-0.533v0h-2.693c-0.004-0-0.009-0-0.013-0-0.295 0-0.533 0.239-0.533 0.533 0 0 0 0 0 0v0 2.693c0 0.307 0.24 0.533 0.533 0.533h2.16v1.8h-3.093c-0.773 0-1.4-0.613-1.4-1.387v-4.587c0-0.76 0.627-1.387 1.4-1.387h4.56c0.773 0 1.4 0.627 1.4 1.387zM28.48 25.813h-1.76v-5.493h-1.24c-0.295 0-0.533 0.239-0.533 0.533v4.96h-1.773v-5.493h-1.24c-0.295 0-0.533 0.239-0.533 0.533v4.96h-1.773v-5.893c0-0.747 0.613-1.36 1.373-1.36h7.48zM28.493 15.387c0 0.773-0.627 1.4-1.4 1.4h-5.973v-1.8h5.040c0.295 0 0.533-0.239 0.533-0.533v0-5.933c0-0.295-0.239-0.533-0.533-0.533v0h-2.707c-0.295 0-0.533 0.239-0.533 0.533v0 2.693c0 0.307 0.24 0.533 0.533 0.533h2.16v1.8h-3.080c-0.773 0-1.4-0.613-1.4-1.387v-4.587c0-0.76 0.627-1.387 1.4-1.387h4.573c0.773 0 1.4 0.627 1.4 1.387zM18.293 6.187h-4.587c-0.773 0-1.387 0.627-1.387 1.387v4.587c0 0.773 0.613 1.387 1.387 1.387h4.587c0.76 0 1.387-0.613 1.387-1.387v-4.587c0-0.76-0.627-1.387-1.387-1.387zM17.893 8.52v2.693c0 0.295-0.239 0.533-0.533 0.533v0h-2.707c-0.295 0-0.533-0.239-0.533-0.533v0-2.68c0-0.293 0.227-0.533 0.533-0.533h2.68c0.307 0 0.533 0.24 0.56 0.52zM16.84 18.56h-4.52c-0.76 0-1.373 0.613-1.373 1.36v4.52c0 0.76 0.613 1.373 1.373 1.373h4.52c0.76 0 1.373-0.613 1.373-1.373v-4.52c0-0.747-0.613-1.36-1.373-1.36zM16.44 20.853v2.667c0 0.295-0.239 0.533-0.533 0.533v0-0.013h-2.653c-0.295 0-0.533-0.239-0.533-0.533v0-2.653c0-0.293 0.24-0.533 0.533-0.533h2.667c0.293 0 0.533 0.24 0.52 0.533zM31.32 1.467c-0.421-0.428-1.006-0.693-1.653-0.693h-27.333c-0.004-0-0.009-0-0.013-0-1.281 0-2.32 1.039-2.32 2.32 0 0.005 0 0.009 0 0.014v-0.001 25.787c-0 0.004-0 0.009-0 0.013 0 1.281 1.039 2.32 2.32 2.32 0.005 0 0.009 0 0.014-0h27.333c0.004 0 0.009 0 0.013 0 1.281 0 2.32-1.039 2.32-2.32 0-0.005 0-0.009-0-0.014v0.001-25.787c0-0.64-0.267-1.227-0.68-1.653zM31.32 28.893c0 0.004 0 0.009 0 0.013 0 0.906-0.734 1.64-1.64 1.64-0.005 0-0.009-0-0.014-0h-27.333c-0.008 0-0.017 0-0.027 0-0.906 0-1.64-0.734-1.64-1.64 0-0.005 0-0.010 0-0.014v0.001-25.787c-0-0.004-0-0.009-0-0.013 0-0.906 0.734-1.64 1.64-1.64 0.005 0 0.009 0 0.014 0h27.333c0.913 0 1.653 0.74 1.653 1.653v0z"></path>
</symbol>
<symbol id="icon-hashnode" viewBox="0 0 32 32">
<path fill="#2962ff" style="fill: var(--color8, #2962ff)" d="M5.12 0h21.76c2.828 0 5.12 2.292 5.12 5.12v0 21.76c0 2.828-2.292 5.12-5.12 5.12v0h-21.76c-2.828 0-5.12-2.292-5.12-5.12v0-21.76c0-2.828 2.292-5.12 5.12-5.12v0zM24.020 28.851l-0.005-0.001c1.862-0.046 3.354-1.566 3.354-3.435 0-1.77-1.339-3.228-3.060-3.416l-0.015-0.001-6.556-11.576c-0.959-1.723-2.811-1.648-3.479 0.797-0.573 2.315-0.425 4.496-0.592 7.131-0.001 0.017-0.013 0.032-0.031 0.036s-0.035-0.003-0.044-0.017l-5.853-11.668c0.477-0.375 0.757-0.948 0.759-1.556 0-1.074-0.871-1.945-1.945-1.945s-1.945 0.871-1.945 1.945c0 1.074 0.871 1.945 1.945 1.945v0c0.092 0 0.167-0.019 0.24-0.019 2.464 6.333 5.205 13.724 6.187 15.428 0.667 1.629 2.945 1.111 3.001-0.648l0.24-9.243c0-0.056 0.073-0.056 0.093-0.019l4.701 11.185c-0.265 0.475-0.42 1.042-0.42 1.645 0 1.893 1.533 3.428 3.425 3.431h0z"></path>
</symbol>
<symbol id="icon-hockeyapp" viewBox="0 0 32 32">
<path fill="#009ee1" style="fill: var(--color9, #009ee1)" d="M29.059 20.003c0.1-0.076 0.241-0.009 0.259 0.111 0.008 0.076 0.016 0.152 0.016 0.228 0 2.115-4.441 4.992-13.333 4.992s-13.333-2.877-13.333-4.983c0-0.076 0.008-0.153 0.017-0.221 0.009-0.081 0.077-0.143 0.159-0.143 0.037 0 0.071 0.013 0.099 0.034l-0-0c2.208 1.587 6.559 2.945 13.059 2.945 6.508 0 10.859-1.359 13.059-2.963zM16 18.891c-7.208 0-11.984-1.639-14.317-3.532-0.028-0.023-0.064-0.038-0.104-0.038-0.063 0-0.118 0.036-0.145 0.089l-0 0.001c-0.125 0.237-0.183 0.492-0.183 0.747 0 2.333 4.916 5.449 14.749 5.449s14.751-3.107 14.751-5.449c0-0.264-0.059-0.509-0.184-0.747-0.027-0.054-0.082-0.090-0.146-0.090-0.040 0-0.077 0.014-0.105 0.039l0-0c-2.333 1.893-7.107 3.532-14.316 3.532zM32 11.251c0 2.691-5.333 6.281-16 6.281s-16-3.591-16-6.281 5.333-4.584 16-4.584 16 1.893 16 4.584zM27.333 10.827c0-1.351-3.775-2.123-11.333-2.123s-11.333 0.773-11.333 2.123 3.775 3.311 11.333 3.311 11.333-1.961 11.333-3.311z"></path>
</symbol>
<symbol id="icon-khanacademy" viewBox="0 0 32 32">
<path fill="#14bf96" style="fill: var(--color10, #14bf96)" d="M28.965 6.631l-11.075-6.193c-0.55-0.276-1.199-0.437-1.885-0.437s-1.335 0.161-1.91 0.448l0.025-0.011-11.085 6.193c-1.079 0.69-1.804 1.851-1.885 3.186l-0.001 0.011v12.341c0.081 1.347 0.806 2.509 1.869 3.19l0.016 0.010 11.075 6.193c0.55 0.276 1.199 0.437 1.885 0.437s1.335-0.161 1.91-0.448l-0.025 0.011 11.085-6.193c1.079-0.691 1.805-1.853 1.885-3.189l0.001-0.011v-12.339c-0.081-1.347-0.806-2.509-1.869-3.19l-0.016-0.010zM16 6.561c0 0 0 0 0.001 0 1.894 0 3.429 1.535 3.429 3.429s-1.535 3.428-3.428 3.429h-0c-0 0-0 0-0.001 0-1.894 0-3.429-1.535-3.429-3.429s1.535-3.428 3.428-3.429h0zM20.125 24.731c-1.23 0.462-2.652 0.73-4.136 0.732h-0.001c-1.473-0.003-2.882-0.272-4.184-0.761l0.082 0.027c-4.312-1.665-7.315-5.777-7.315-10.591 0-0.021 0-0.041 0-0.062v0.003-1.143c6.195 0.023 10.765 5.097 10.765 11.347v0.264h1.235v-0.263c0-6.251 4.593-11.347 10.741-11.347 0.035 0.387 0.057 0.776 0.115 1.141 0 0.017 0 0.037 0 0.056 0 4.811-2.997 8.922-7.226 10.568l-0.077 0.026z"></path>
</symbol>
<symbol id="icon-livejournal" viewBox="0 0 32 32">
<path fill="#00b0ea" style="fill: var(--color11, #00b0ea)" d="M24.12 19.595c-2.016 0.885-3.635 2.513-4.508 4.532l5.693 1.177-1.181-5.709zM3.3 11.089l-3.3-3.289c1.5-3.484 4.288-6.28 7.764-7.8h0.008l3.292 3.284c1.824-0.788 3.835-1.228 5.951-1.228 8.275 0 14.985 6.703 14.985 14.972s-6.711 14.972-14.985 14.972c-8.28 0-14.988-6.699-14.988-14.972 0-2.121 0.473-4.108 1.269-5.935l12.191 12.152c1.5-3.484 4.291-6.28 7.764-7.8l-12.191-12.16c-3.475 1.52-6.26 4.32-7.764 7.8z"></path>
</symbol>
<symbol id="icon-mathworks" viewBox="0 0 32 32">
<path fill="#0076a8" style="fill: var(--color12, #0076a8)" d="M5.764 21.664c-1.591-1.192-3.577-2.584-5.764-4.173l7.752-2.981 3.18 2.385c-2.385 2.783-3.975 3.776-5.168 4.769zM27.031 13.317c-0.596-1.591-0.993-3.18-1.591-4.771-0.596-1.789-1.192-3.379-2.187-4.771-0.397-0.596-1.192-1.988-2.187-1.988-0.199 0-0.397 0.199-0.596 0.199-0.596 0.199-1.391 1.391-1.591 2.187-0.596 0.993-1.789 2.584-2.584 3.577-0.199 0.397-0.596 0.795-0.795 0.993-0.596 0.397-1.192 0.993-1.988 1.391-0.199 0-0.397 0.199-0.596 0.199-0.596 0-0.993 0.397-1.391 0.596-0.596 0.596-1.192 1.391-1.789 1.988 0 0.199-0.199 0.397-0.397 0.596l2.981 2.187c2.187-2.584 4.771-5.168 6.559-10.136 0 0-0.596 5.367-5.367 11.131-2.981 3.379-5.367 5.168-5.764 5.565 0 0 0.795-0.199 1.591 0.199 1.591 0.596 2.385 2.783 2.981 4.372 0.397 1.192 0.993 2.187 1.391 3.379 1.591-0.397 2.584-0.993 3.577-1.988s1.988-2.187 2.981-3.18c1.789-2.187 3.975-4.969 6.757-3.577 0.397 0.199 0.993 0.596 1.192 0.795 0.596 0.397 0.993 0.795 1.591 1.391 0.993 0.795 1.391 1.391 2.187 1.789-1.988-3.975-3.379-7.951-4.967-12.121z"></path>
</symbol>
<symbol id="icon-openapiinitiative" viewBox="0 0 32 32">
<path fill="#6ba539" style="fill: var(--color13, #6ba539)" d="M28.052 0c-2.179 0.001-3.944 1.767-3.944 3.945 0 0.639 0.152 1.242 0.421 1.776l-0.010-0.023-8.596 8.596c-0.512-0.26-1.116-0.412-1.756-0.412-2.18 0-3.947 1.767-3.947 3.947s1.767 3.947 3.947 3.947c2.18 0 3.947-1.767 3.947-3.947 0-0.639-0.152-1.242-0.421-1.776l0.010 0.023 8.596-8.596c0.511 0.259 1.114 0.411 1.753 0.411 2.179 0 3.945-1.766 3.945-3.945s-1.766-3.945-3.945-3.945h-0zM14.171 3.66c-0.096 0-0.191 0.004-0.285 0.005-0.096 0.003-0.191 0.003-0.287 0.007-0.596 0.024-1.191 0.085-1.78 0.184l-0.040 0.007-0.247 0.044-0.14 0.027c-0.197 0.037-0.327 0.066-0.456 0.097l0.070-0.014-0.043 0.011c-1.289 0.305-2.422 0.74-3.476 1.304l0.077-0.037-0.207 0.119c-0.084 0.045-0.167 0.093-0.249 0.14-0.061 0.036-0.124 0.068-0.187 0.105h-0.001l-0.013 0.007-0.048 0.027v0.003l0.148 0.245 4.2 6.973c0.136-0.084 0.302-0.174 0.473-0.255l0.034-0.014c0.634-0.31 1.374-0.508 2.156-0.55l0.014-0.001c0.095-0.005 0.191-0.011 0.285-0.011zM14.741 3.673v8.444c0.433 0.045 0.863 0.137 1.28 0.279l6.213-6.213c-0.231-0.16-0.464-0.316-0.704-0.463l-0.035-0.020c-0.075-0.047-0.149-0.089-0.224-0.133l-0.131-0.075-0.132-0.073c0.012 0.003-0.062-0.038-0.137-0.078l-0.091-0.045-0.036-0.019c-0.525-0.283-1.152-0.56-1.801-0.792l-0.099-0.031c-0.92-0.321-1.871-0.547-2.837-0.673l-0.119-0.016-0.12-0.013c-0.034-0.005-0.112-0.014-0.19-0.022l-0.374-0.031c-0.087-0.008-0.205-0.015-0.323-0.019l-0.017-0.001c-0.041-0.004-0.083-0.004-0.124-0.005zM6.376 5.997c-0.68 0.445-1.272 0.911-1.821 1.423l0.008-0.007 5.972 5.972c0.065-0.053 0.131-0.104 0.199-0.155l-0.015-0.024zM4.149 7.811c-0.067 0.067-0.131 0.137-0.196 0.205l-0.199 0.207c-0.44 0.476-0.84 0.973-1.203 1.491l-0.052 0.075c-0.067 0.094-0.162 0.235-0.254 0.379l-0.034 0.056c-1.288 1.995-2.094 4.411-2.199 7.007l-0.001 0.028-0.008 0.287-0.004 0.285h8.423c0-0.096 0.009-0.191 0.013-0.285 0.007-0.096 0.008-0.192 0.017-0.287 0.108-1.096 0.532-2.167 1.269-3.067 0.060-0.073 0.128-0.141 0.192-0.213 0.064-0.069 0.124-0.143 0.192-0.211zM25.823 9.763l-6.217 6.217c0.141 0.416 0.233 0.845 0.28 1.279h8.443l-0.005-0.125c-0.013-0.249-0.028-0.46-0.047-0.669l0.005 0.061-0.007-0.069c-0.017-0.184-0.030-0.295-0.043-0.405l0.008 0.083v-0.012l-0.044-0.32v-0.012c-0.112-0.766-0.264-1.438-0.462-2.091l0.026 0.1-0.004-0.013c-0.071-0.251-0.102-0.352-0.135-0.453l0.042 0.149-0.013-0.040c-0.070-0.223-0.101-0.314-0.133-0.404l0.041 0.132-0.027-0.073c-0.078-0.235-0.147-0.414-0.223-0.589l0.019 0.049c-0.065-0.171-0.107-0.271-0.15-0.37l0.026 0.067c-0.084-0.206-0.112-0.269-0.141-0.332l0.057 0.14-0.049-0.108c-0.083-0.188-0.118-0.263-0.154-0.337l0.048 0.109-0.032-0.069-0.128-0.259-0.019-0.036c-0.088-0.175-0.138-0.268-0.188-0.36l0.039 0.077-0.005-0.011c-0.281-0.514-0.547-0.941-0.836-1.352l0.030 0.045zM19.916 17.829c0 0.095-0.008 0.189-0.013 0.285-0.004 0.096-0.007 0.191-0.016 0.285-0.119 1.178-0.578 2.23-1.277 3.078l0.008-0.010c-0.060 0.073-0.128 0.143-0.192 0.213s-0.124 0.144-0.192 0.212l5.956 5.956c0.068-0.068 0.132-0.139 0.197-0.207 0.067-0.069 0.133-0.137 0.197-0.207 0.441-0.477 0.844-0.977 1.207-1.496l0.043-0.061 0.131-0.192 0.113-0.173 0.053-0.084c1.286-1.994 2.090-4.408 2.195-7.002l0.001-0.028c0.004-0.095 0.005-0.191 0.008-0.285 0.001-0.095 0.005-0.191 0.005-0.285zM0.013 18.4l0.005 0.124 0.013 0.239 0.007 0.101 0.023 0.275 0.007 0.061c0.009 0.101 0.020 0.204 0.032 0.304l0.004 0.029c0.020 0.176 0.036 0.289 0.053 0.401l-0.009-0.071c0.096 0.673 0.243 1.34 0.436 1.996l0.003 0.008c0.029 0.103 0.063 0.205 0.095 0.307l0.005 0.019 0.007 0.019c0.11 0.343 0.179 0.537 0.251 0.73l-0.047-0.145 0.040 0.107 0.079 0.197c0.065 0.17 0.106 0.271 0.15 0.37l-0.026-0.066 0.083 0.187 0.051 0.112 0.104 0.225 0.036 0.072c0.133 0.279 0.233 0.472 0.337 0.662l-0.037-0.074 0.033 0.057 7.237-4.36c-0.267-0.549-0.454-1.188-0.525-1.86l-0.002-0.025h-0.033zM0.687 22.195l-0.275 0.077 0.003 0.007zM9.253 20.792l-7.22 4.349c0.111 0.185 0.227 0.364 0.345 0.541l0.011 0.019 0.005 0.007 0.011 0.019h0.001c0.009 0.016 0.019 0.029 0.029 0.043l0.001 0.003v0.001c0.158 0.232 0.288 0.414 0.423 0.591l-0.026-0.035 0.008 0.011c0.147 0.196 0.274 0.356 0.404 0.512l-0.018-0.022 0.044 0.053c0.057 0.069 0.115 0.137 0.173 0.204l0.076 0.087 0.149 0.169 0.085 0.092 0.039 0.041 0.111 0.12 0.047 0.047c0.065 0.068 0.131 0.137 0.199 0.204l5.955-5.955c-0.131-0.132-0.255-0.272-0.372-0.418l-0.008-0.010c-0.162-0.197-0.318-0.417-0.459-0.648l-0.015-0.026zM17.808 22.273c-0.067 0.053-0.133 0.105-0.2 0.155l0.015 0.024 4.343 7.209c0.201-0.132 0.4-0.267 0.595-0.409 0.42-0.309 0.827-0.645 1.219-1.008l-5.947-5.947zM10.532 22.277l-5.967 5.967c0.076 0.071 0.161 0.148 0.247 0.223l0.013 0.011c0.029 0.027 0.057 0.053 0.087 0.077l0.203 0.173c0.070 0.059 0.163 0.135 0.257 0.21l0.029 0.022 0.031 0.023 0.255 0.197 0.011 0.007c0.357 0.267 0.729 0.519 1.112 0.752l0.040 0.024 0.219 0.129 0.135 0.076c0.082 0.050 0.2 0.116 0.32 0.178l0.040 0.019c0.011 0.005 0.021 0.013 0.033 0.017 0.216 0.113 0.436 0.219 0.657 0.32l0.211-0.513 3.003-7.291c-0.355-0.191-0.661-0.398-0.945-0.631l0.010 0.008zM17.133 22.748c-0.081 0.049-0.165 0.093-0.249 0.139-0.788 0.432-1.727 0.686-2.725 0.686-0.584 0-1.147-0.087-1.677-0.248l0.041 0.011c-0.092-0.027-0.18-0.063-0.271-0.095-0.089-0.032-0.181-0.059-0.269-0.096l-3.207 7.788 0.023 0.009c0.007 0.003 0.015 0.006 0.024 0.009l0.001 0 0.007 0.004c0.069 0.028 0.141 0.053 0.212 0.080 0.089 0.036 0.177 0.071 0.267 0.103l0.136 0.053c0.936 0.329 1.907 0.56 2.891 0.691l0.116 0.016 0.349 0.039c0.073 0.009 0.189 0.019 0.305 0.028l0.031 0.002c0.031 0.001 0.064 0.001 0.095 0.004l0.245 0.015 0.149 0.007c0.126 0.006 0.274 0.009 0.423 0.009 0.019 0 0.038-0 0.058-0h0.064c0.004 0 0.009 0 0.014 0 0.84 0 1.662-0.073 2.462-0.212l-0.085 0.012 0.247-0.045 0.14-0.027 0.145-0.031 0.24-0.053 0.043-0.011c1.289-0.305 2.422-0.74 3.476-1.304l-0.076 0.037c0.069-0.037 0.139-0.080 0.208-0.119 0.084-0.045 0.167-0.093 0.249-0.14 0.057-0.032 0.116-0.063 0.173-0.097h0.001l0.003-0.003 0.005-0.003 0.009-0.005 0.056-0.033-0.147-0.244-0.147-0.245zM21.483 29.967l-0.056 0.033zM21.416 30.005h-0.001z"></path>
</symbol>
<symbol id="icon-overleaf" viewBox="0 0 32 32">
<path fill="#47a141" style="fill: var(--color14, #47a141)" d="M9.816 8.039c-4.423 2.67-7.385 7.372-7.591 12.779l-0.001 0.029c0.005 6.158 4.998 11.149 11.157 11.149 6.162 0 11.157-4.995 11.157-11.157 0-4.73-2.944-8.773-7.099-10.396l-0.076-0.026c-1.142-0.474-2.467-0.75-3.858-0.75-0.036 0-0.072 0-0.108 0.001l0.005-0c-2.401 1.638-4.31 3.829-5.57 6.396l-0.043 0.097c1.353-1.606 3.366-2.62 5.615-2.62 4.047 0 7.328 3.281 7.328 7.328s-3.281 7.328-7.328 7.328c-0.009 0-0.017 0-0.026-0h0.001c-0.004 0-0.009 0-0.013 0-2.228 0-4.224-0.994-5.568-2.563l-0.008-0.010c-1.396-1.551-2.249-3.614-2.249-5.877 0-0.544 0.049-1.077 0.144-1.594l-0.008 0.054c1.431-8.56 11.685-13.489 19.277-15.404-3.923 1.901-7.239 3.842-10.39 6.006l0.268-0.174c9.177 3.543 10.652-4.181 14.943-7.637-4.269-1.672-19.937-2.288-19.96 7.043z"></path>
</symbol>
<symbol id="icon-ovh" viewBox="0 0 32 32">
<path fill="#123f6d" style="fill: var(--color15, #123f6d)" d="M26.508 13.46l3.417-5.933c1.32 2.325 2.075 5.012 2.075 7.88 0 3.84-1.356 7.364-3.613 10.125h-8.827l2.72-4.721h-3.595l4.235-7.351zM23.415 6.469l-10.971 19.051 0.004 0.012h-8.836c-2.26-2.763-3.612-6.285-3.612-10.125 0-2.869 0.76-5.56 2.081-7.891l5.725 9.951 6.327-10.997z"></path>
</symbol>
<symbol id="icon-bell" viewBox="0 0 32 32">
<path d="M32.047 25c0-9-8-7-8-14 0-0.58-0.056-1.076-0.158-1.498-0.526-3.532-2.88-6.366-5.93-7.23 0.027-0.123 0.041-0.251 0.041-0.382 0-1.040-0.9-1.891-2-1.891s-2 0.851-2 1.891c0 0.131 0.014 0.258 0.041 0.382-3.421 0.969-5.966 4.416-6.039 8.545-0.001 0.060-0.002 0.121-0.002 0.183 0 7-8 5-8 14 0 2.382 5.331 4.375 12.468 4.878 0.673 1.263 2.002 2.122 3.532 2.122s2.86-0.86 3.532-2.122c7.137-0.503 12.468-2.495 12.468-4.878 0-0.007-0.001-0.014-0.001-0.021l0.048 0.021zM25.82 26.691c-1.695 0.452-3.692 0.777-5.837 0.958-0.178-2.044-1.893-3.648-3.984-3.648s-3.805 1.604-3.984 3.648c-2.144-0.18-4.142-0.506-5.837-0.958-2.332-0.622-3.447-1.318-3.855-1.691 0.408-0.372 1.523-1.068 3.855-1.691 2.712-0.724 6.199-1.122 9.82-1.122s7.109 0.398 9.82 1.122c2.332 0.622 3.447 1.318 3.855 1.691-0.408 0.372-1.523 1.068-3.855 1.691z"></path>
</symbol>
<symbol id="icon-keyboard" viewBox="0 0 36 32">
<path d="M34 4h-32c-1.1 0-2 0.9-2 2v20c0 1.1 0.9 2 2 2h32c1.1 0 2-0.9 2-2v-20c0-1.1-0.9-2-2-2zM20 8h4v4h-4v-4zM26 14v4h-4v-4h4zM14 8h4v4h-4v-4zM20 14v4h-4v-4h4zM8 8h4v4h-4v-4zM14 14v4h-4v-4h4zM4 8h2v4h-2v-4zM4 14h4v4h-4v-4zM6 24h-2v-4h2v4zM24 24h-16v-4h16v4zM32 24h-6v-4h6v4zM32 18h-4v-4h4v4zM32 12h-6v-4h6v4z"></path>
</symbol>
<symbol id="icon-list2" viewBox="0 0 32 32">
<path d="M12 2h20v4h-20v-4zM12 14h20v4h-20v-4zM12 26h20v4h-20v-4zM0 4c0-2.209 1.791-4 4-4s4 1.791 4 4c0 2.209-1.791 4-4 4s-4-1.791-4-4zM0 16c0-2.209 1.791-4 4-4s4 1.791 4 4c0 2.209-1.791 4-4 4s-4-1.791-4-4zM0 28c0-2.209 1.791-4 4-4s4 1.791 4 4c0 2.209-1.791 4-4 4s-4-1.791-4-4z"></path>
</symbol>
<symbol id="icon-menu" viewBox="0 0 32 32">
<path d="M2 6h28v6h-28zM2 14h28v6h-28zM2 22h28v6h-28z"></path>
</symbol>
<symbol id="icon-radio-checked" viewBox="0 0 32 32">
<path d="M16 0c-8.837 0-16 7.163-16 16s7.163 16 16 16 16-7.163 16-16-7.163-16-16-16zM16 28c-6.627 0-12-5.373-12-12s5.373-12 12-12c6.627 0 12 5.373 12 12s-5.373 12-12 12zM10 16c0-3.314 2.686-6 6-6s6 2.686 6 6c0 3.314-2.686 6-6 6s-6-2.686-6-6z"></path>
</symbol>
<symbol id="icon-insert-template" viewBox="0 0 32 32">
<path d="M12 6h4v2h-4zM18 6h4v2h-4zM28 6v8h-6v-2h4v-4h-2v-2zM10 12h4v2h-4zM16 12h4v2h-4zM6 8v4h2v2h-4v-8h6v2zM12 18h4v2h-4zM18 18h4v2h-4zM28 18v8h-6v-2h4v-4h-2v-2zM10 24h4v2h-4zM16 24h4v2h-4zM6 20v4h2v2h-4v-8h6v2zM30 2h-28v28h28v-28zM32 0v0 32h-32v-32h32z"></path>
</symbol>
<symbol id="icon-facebook" viewBox="0 0 32 32">
<path d="M19 6h5v-6h-5c-3.86 0-7 3.14-7 7v3h-4v6h4v16h6v-16h5l1-6h-6v-3c0-0.542 0.458-1 1-1z"></path>
</symbol>
<symbol id="icon-instagram" viewBox="0 0 32 32">
<path d="M16 2.881c4.275 0 4.781 0.019 6.462 0.094 1.563 0.069 2.406 0.331 2.969 0.55 0.744 0.288 1.281 0.638 1.837 1.194 0.563 0.563 0.906 1.094 1.2 1.838 0.219 0.563 0.481 1.412 0.55 2.969 0.075 1.688 0.094 2.194 0.094 6.463s-0.019 4.781-0.094 6.463c-0.069 1.563-0.331 2.406-0.55 2.969-0.288 0.744-0.637 1.281-1.194 1.837-0.563 0.563-1.094 0.906-1.837 1.2-0.563 0.219-1.413 0.481-2.969 0.55-1.688 0.075-2.194 0.094-6.463 0.094s-4.781-0.019-6.463-0.094c-1.563-0.069-2.406-0.331-2.969-0.55-0.744-0.288-1.281-0.637-1.838-1.194-0.563-0.563-0.906-1.094-1.2-1.837-0.219-0.563-0.481-1.413-0.55-2.969-0.075-1.688-0.094-2.194-0.094-6.463s0.019-4.781 0.094-6.463c0.069-1.563 0.331-2.406 0.55-2.969 0.288-0.744 0.638-1.281 1.194-1.838 0.563-0.563 1.094-0.906 1.838-1.2 0.563-0.219 1.412-0.481 2.969-0.55 1.681-0.075 2.188-0.094 6.463-0.094zM16 0c-4.344 0-4.887 0.019-6.594 0.094-1.7 0.075-2.869 0.35-3.881 0.744-1.056 0.412-1.95 0.956-2.837 1.85-0.894 0.888-1.438 1.781-1.85 2.831-0.394 1.019-0.669 2.181-0.744 3.881-0.075 1.713-0.094 2.256-0.094 6.6s0.019 4.887 0.094 6.594c0.075 1.7 0.35 2.869 0.744 3.881 0.413 1.056 0.956 1.95 1.85 2.837 0.887 0.887 1.781 1.438 2.831 1.844 1.019 0.394 2.181 0.669 3.881 0.744 1.706 0.075 2.25 0.094 6.594 0.094s4.888-0.019 6.594-0.094c1.7-0.075 2.869-0.35 3.881-0.744 1.050-0.406 1.944-0.956 2.831-1.844s1.438-1.781 1.844-2.831c0.394-1.019 0.669-2.181 0.744-3.881 0.075-1.706 0.094-2.25 0.094-6.594s-0.019-4.887-0.094-6.594c-0.075-1.7-0.35-2.869-0.744-3.881-0.394-1.063-0.938-1.956-1.831-2.844-0.887-0.887-1.781-1.438-2.831-1.844-1.019-0.394-2.181-0.669-3.881-0.744-1.712-0.081-2.256-0.1-6.6-0.1v0z"></path>
<path d="M16 7.781c-4.537 0-8.219 3.681-8.219 8.219s3.681 8.219 8.219 8.219 8.219-3.681 8.219-8.219c0-4.537-3.681-8.219-8.219-8.219zM16 21.331c-2.944 0-5.331-2.387-5.331-5.331s2.387-5.331 5.331-5.331c2.944 0 5.331 2.387 5.331 5.331s-2.387 5.331-5.331 5.331z"></path>
<path d="M26.462 7.456c0 1.060-0.859 1.919-1.919 1.919s-1.919-0.859-1.919-1.919c0-1.060 0.859-1.919 1.919-1.919s1.919 0.859 1.919 1.919z"></path>
</symbol>
<symbol id="icon-twitter" viewBox="0 0 32 32">
<path d="M32 7.075c-1.175 0.525-2.444 0.875-3.769 1.031 1.356-0.813 2.394-2.1 2.887-3.631-1.269 0.75-2.675 1.3-4.169 1.594-1.2-1.275-2.906-2.069-4.794-2.069-3.625 0-6.563 2.938-6.563 6.563 0 0.512 0.056 1.012 0.169 1.494-5.456-0.275-10.294-2.888-13.531-6.862-0.563 0.969-0.887 2.1-0.887 3.3 0 2.275 1.156 4.287 2.919 5.463-1.075-0.031-2.087-0.331-2.975-0.819 0 0.025 0 0.056 0 0.081 0 3.181 2.263 5.838 5.269 6.437-0.55 0.15-1.131 0.231-1.731 0.231-0.425 0-0.831-0.044-1.237-0.119 0.838 2.606 3.263 4.506 6.131 4.563-2.25 1.762-5.075 2.813-8.156 2.813-0.531 0-1.050-0.031-1.569-0.094 2.913 1.869 6.362 2.95 10.069 2.95 12.075 0 18.681-10.006 18.681-18.681 0-0.287-0.006-0.569-0.019-0.85 1.281-0.919 2.394-2.075 3.275-3.394z"></path>
</symbol>
<symbol id="icon-twitch" viewBox="0 0 32 32">
<path d="M3 0l-3 5v23h8v4h4l4-4h5l9-9v-19h-27zM26 17l-5 5h-5l-4 4v-4h-6v-18h20v13z"></path>
<path d="M19 8h3v8h-3v-8z"></path>
<path d="M13 8h3v8h-3v-8z"></path>
</symbol>
</defs>
</svg>
